<svg width="63" height="97" viewBox="0 0 63 97" fill="none" xmlns="http://www.w3.org/2000/svg">
<path d="M61.2614 95.0033L61.1808 95.0665C61.3361 95.169 61.487 95.2573 61.6277 95.3477C61.7156 95.3837 61.7844 95.4415 61.824 95.5112L62.1273 96.2022L61.2848 95.6703L61.2497 95.6529L61.2409 95.6605C61.1806 95.6321 61.1259 95.5976 61.0783 95.5581C60.898 95.4447 60.7471 95.3434 60.6006 95.2507C60.4614 95.2943 60.2973 95.2137 60.1538 95.1417L60.1215 95.1265L60.101 95.1156L60.0776 95.1352L58.5275 94.1674C58.3121 94.0388 58.1363 93.9287 57.9707 93.8197L58.0147 93.7837L57.5971 93.5658L57.5473 93.544C57.3343 93.4649 57.1317 93.3711 56.9422 93.2639L56.7957 93.1461L56.2302 92.8508C56.1057 92.7941 55.9943 92.7483 55.8771 92.7004L56.4631 93.1941L53.8289 91.7882L53.8801 91.7326L53.8655 91.7249L53.9094 91.6661L53.6633 91.5811L53.7336 91.4623L53.6692 91.4307H53.6399L53.5842 91.4045C53.5833 91.4291 53.5891 91.4535 53.6012 91.4763C53.6133 91.4992 53.6314 91.52 53.6545 91.5375C53.5601 91.485 53.4633 91.4348 53.3644 91.3871L53.5036 91.6269C54.1395 92.0541 54.494 92.3026 54.6903 92.4552L54.7841 92.4007L55.3951 92.9129L55.5343 92.8344C55.8038 93.0677 56.11 93.278 56.4441 93.4611L56.4734 93.4688L56.5364 93.5124L57.8697 94.248L57.6836 94.2023C57.8403 94.3003 58.0088 94.4072 58.1759 94.5096L58.1055 94.5728L58.2447 94.6502C58.4117 94.7396 58.5319 94.805 58.6623 94.878L60.0043 95.6344C60.0324 95.6485 60.0598 95.6634 60.0864 95.6791L59.9794 95.7815C60.038 95.8033 60.1186 95.8371 60.2578 95.8959L60.3706 95.9428C60.4409 95.9744 60.5142 96.0028 60.5874 96.0278C60.5491 96.0186 60.5083 96.0167 60.4688 96.0224L60.6402 96.0736L60.6768 96.0463L60.7003 96.0638L60.7838 96.127L60.9684 96.2294L60.8468 96.3875C60.8121 96.4333 60.7552 96.4677 60.6877 96.4835C60.6202 96.4992 60.5472 96.4953 60.4834 96.4725L58.7634 95.9363C58.655 95.9668 58.5055 95.9581 58.2506 95.9101L58.2872 95.787L58.2564 95.7761L58.1832 95.7543L58.2213 95.6867L58.063 95.6496C58.0444 95.6955 58.0482 95.7449 58.0737 95.7889C58.0991 95.833 58.1446 95.8689 58.2022 95.8905C58.129 95.8654 57.5927 95.7237 57.2279 95.6289L56.5466 95.4458L55.8126 95.2409L55.8273 95.2126C55.6866 95.1723 55.5723 95.1319 55.4493 95.0916C55.2881 95.0349 55.1504 94.9892 55.0141 94.9325C54.9129 94.9835 54.7888 95.0031 54.6684 94.987H54.6347L54.6024 94.9772C54.0017 94.8213 53.9226 94.781 53.8318 94.721C53.6765 94.6639 53.5147 94.6173 53.3483 94.5815L53.3087 94.5685C53.2325 94.5425 53.1726 94.4957 53.1417 94.4377C53.0054 94.4109 52.8714 94.3782 52.7403 94.3396L52.6905 94.3221L52.4692 94.2197C52.2995 94.1384 52.1285 94.0585 51.9564 93.9799L51.8832 94.1031C51.7687 94.0723 51.6529 94.0443 51.5359 94.0192L51.5008 94.0813C50.8806 93.9015 50.2623 93.718 49.646 93.5309L48.55 93.2017L48.6892 93.1701L48.4651 93.0884C47.9523 92.9031 47.7267 92.8214 47.63 92.7462L47.5113 92.7712L47.4058 92.7222C47.114 92.607 46.8174 92.4987 46.5165 92.3974L46.4945 92.4334C46.1333 92.3239 45.781 92.1987 45.4396 92.0584C45.0064 91.8796 44.5559 91.7251 44.0917 91.5963L44.0712 91.5898C43.893 91.5334 43.7122 91.4818 43.5291 91.435C42.9914 91.289 42.861 91.2519 42.7921 91.1451L42.6398 90.9053L41.8735 90.6263L41.9614 90.55L41.8955 90.5304C41.8792 90.5589 41.8551 90.5845 41.8249 90.6057C41.7946 90.6268 41.7588 90.6432 41.7197 90.6536C41.6499 90.6723 41.5734 90.6715 41.5043 90.6514C41.3842 90.6449 41.2259 90.5871 40.9241 90.4836L40.9666 90.4182L40.949 90.4105H40.9329C40.7937 90.4214 40.6179 90.3528 40.2736 90.2209L40.2018 90.1936L40.1784 90.1653C39.9746 90.0726 39.7632 89.9896 39.5454 89.9168C39.4556 89.8903 39.3757 89.8481 39.3125 89.7937L39.0927 89.7174C38.8744 89.6411 38.6283 89.5539 38.1902 89.3871L38.3191 89.155C38.2854 89.1321 38.2342 89.1027 38.18 89.0678C38.1361 89.1005 38.1097 89.144 38.1057 89.1901C38.1016 89.2362 38.1202 89.2818 38.158 89.3185C38.0552 89.2526 37.946 89.1925 37.8313 89.1386C37.5675 89.0035 37.1676 88.8117 36.7983 88.6536C36.7081 88.6424 36.6197 88.6241 36.5346 88.5991L36.4833 88.585C36.458 88.5748 36.4336 88.5636 36.4101 88.5512L34.4527 87.7948L33.7861 87.5289L32.8762 87.5093L33.4916 87.4068L32.7678 87.1169L32.548 86.997L32.6257 86.8553C32.647 86.8141 32.6856 86.7792 32.7357 86.7556C32.7859 86.732 32.8449 86.7211 32.9041 86.7245H32.9143L33.1326 86.7333L32.929 86.6472L33.852 86.7104V86.6951L34.0864 86.7147L34.1714 86.7224C34.2668 86.6924 34.3696 86.6776 34.4732 86.6788L34.5201 86.6722L34.5787 86.6886C34.6813 86.7038 34.7838 86.7147 34.8893 86.7202C35.0812 86.7365 35.3244 86.7594 35.5852 86.7856L36.728 86.9011C36.7914 86.8625 36.8719 86.8431 36.9537 86.8466C36.9961 86.8477 37.0372 86.8499 37.0782 86.8542C37.1646 86.8619 37.3023 86.876 37.5031 86.8978L37.5558 86.9065C37.588 86.9142 37.7258 86.9338 37.8151 86.948C38.1228 86.9916 38.3426 87.0243 38.303 87.2237C38.933 87.2967 39.3799 87.3599 39.73 87.4166L39.7432 87.3316H39.7711L39.7374 87.1725L40.6091 87.3382L40.5857 87.4221L40.7849 87.4482L42.4405 87.7207C42.8112 87.7872 43.195 87.8646 43.5686 87.9387C43.8177 87.9888 44.0683 88.0411 44.3203 88.0869C44.6177 88.1501 44.9078 88.2133 45.1803 88.2755C45.4528 88.3365 45.737 88.3997 45.9905 88.4498H46.011C46.6058 88.6111 46.871 88.6972 46.8901 88.8411L46.9457 88.8585L47.0835 88.8128L47.6871 88.9643L47.5845 88.6471L48.1252 89.0732L48.4035 89.1441L48.361 89.1147C47.7883 88.6972 47.2061 88.287 46.6146 87.8842L44.9444 86.742L45.1187 86.8128C44.8623 86.6068 44.6353 86.4423 44.4228 86.2853C44.0448 86.0019 43.7269 85.7654 43.4163 85.4864C43.3694 85.4773 43.3259 85.4605 43.2888 85.4374L43.2419 85.4047L43.1452 85.3175L43.1071 85.3415C42.7592 85.0817 42.4388 84.8022 42.149 84.5055C42.0616 84.4164 42.0029 84.3134 41.9775 84.2047C41.6386 83.9674 41.3283 83.7085 41.0501 83.4309L41.0062 83.4592L40.8186 83.3088C40.4648 83.0248 40.1132 82.7392 39.7637 82.4522C39.5348 82.2623 39.3081 82.0708 39.0839 81.8778C38.9754 81.7849 38.8783 81.685 38.7938 81.5792C38.6016 81.4218 38.4187 81.2581 38.2459 81.0887L37.7009 80.6157C37.3697 80.3302 37.172 80.158 36.646 79.6926L36.6914 79.6642C36.5932 79.5618 36.4687 79.4594 36.3178 79.3297C36.1654 79.1989 36.0145 79.0724 35.8328 78.9046L35.6834 78.7738C34.9801 78.1646 34.8351 78.0196 34.693 77.8779C34.5509 77.7362 34.4293 77.6142 33.7187 77.0071L32.9685 76.3641L33.2469 76.448L33.0608 76.2834C32.674 75.939 32.236 75.551 31.8975 75.1837L31.9268 75.1674C31.7217 74.9886 31.4683 74.7914 31.2177 74.5974C31.0624 74.4786 30.9144 74.3641 30.7826 74.2562L30.7328 74.2835C30.5936 74.1538 30.4808 74.0546 30.3943 73.9761C30.3282 73.9187 30.2689 73.857 30.217 73.7919C30.1433 73.7212 30.1078 73.6326 30.1174 73.5434C30.0734 73.4878 30.027 73.4333 29.9782 73.38C29.8171 73.3625 29.6999 73.2394 29.461 72.9963C29.2322 72.7644 29.0171 72.5251 28.8164 72.2792L28.5541 71.9773C28.2944 71.6757 28.0272 71.3778 27.7527 71.0836C27.6033 70.9201 27.4626 70.7675 27.3352 70.6411L27.4084 70.5975L27.3571 70.5343C27.174 70.3206 26.9205 70.0602 26.6524 69.7833C26.2715 69.3921 25.8832 68.9899 25.6137 68.6564L25.5111 68.5899L25.4876 68.5616C25.4132 68.479 25.3503 68.391 25.3001 68.2989L24.9456 67.8488C24.5573 67.3561 24.1178 66.8025 23.9551 66.5518C23.7274 66.3667 23.527 66.1639 23.3574 65.9469C23.2475 65.8161 23.12 65.6636 22.9735 65.4783C22.8783 65.3627 22.7904 65.2418 22.7039 65.1251L22.5867 64.9628L22.5223 64.8766C22.281 64.5367 22.026 64.2023 21.7575 63.874L21.6989 63.9034L21.5523 63.7094L21.17 63.2189L21.1846 63.2909L20.452 62.3176C20.1116 61.8785 19.7997 61.4275 19.5173 60.9661L19.0426 60.3503C18.6851 59.885 18.4478 59.5765 18.2529 59.2812C17.9894 58.8693 17.7379 58.4532 17.4984 58.0332L17.3519 57.9308L17.3284 57.8872C17.264 57.7728 17.0281 57.4491 16.7292 57.0393C16.6314 56.9058 16.5342 56.7721 16.4376 56.6382C16.3351 56.4976 16.2149 56.3308 16.0919 56.139L15.7476 55.6137C15.5278 55.2726 15.3403 54.9685 15.1762 54.6906L15.1542 54.6971C14.9579 54.3592 14.7117 53.968 14.3791 53.4666C14.2033 53.1952 14.0319 52.9217 13.8634 52.6536C13.7694 52.5051 13.6766 52.3561 13.585 52.2067C13.0137 51.2966 12.6664 50.6972 12.599 50.3615C12.4818 50.1403 12.3749 49.9147 12.2694 49.6956C12.2107 49.571 12.1506 49.4467 12.0892 49.3229L12.2283 49.2825L12.1741 49.1921C12.0232 49.1539 11.9324 49.0057 11.8108 48.803C11.6919 48.6013 11.5762 48.3985 11.4636 48.1948C11.3795 48.0457 11.2951 47.8968 11.2101 47.748L11.1779 47.7796L10.9991 47.4439L10.898 47.2608C10.8386 47.1561 10.7824 47.0503 10.7295 46.9436L9.38749 44.3137C9.2483 44.0413 9.10033 43.7601 8.96993 43.48L8.04691 41.5323L7.9004 41.2185C7.79784 41.0005 7.69528 40.7836 7.59565 40.5623L6.71219 38.4632C6.6792 38.4269 6.65445 38.3867 6.63893 38.3444L6.42942 37.8246L6.4514 37.818L6.38986 37.6044C6.33126 37.3995 6.28144 37.2186 6.08365 36.6943C6.05044 36.6046 6.00982 36.5166 5.96205 36.4306C5.91339 36.3877 5.87878 36.3369 5.86095 36.2824C5.84604 36.2557 5.83332 36.2284 5.82286 36.2006C5.79349 36.1221 5.76565 36.0432 5.73935 35.9641L5.30567 34.8306L5.40091 34.8067L5.38333 34.7587C5.33957 34.656 5.31156 34.55 5.29981 34.4426C5.19015 34.2067 5.09386 33.9674 5.01119 33.7255C4.83487 33.2327 4.6654 32.7386 4.50279 32.2432L4.03395 30.8079L3.99 30.6705C3.8933 30.3436 3.81712 30.0831 3.77902 29.9861L3.7717 29.9599C3.62372 29.2428 3.42446 28.5627 3.15928 27.6733L3.24572 27.6581C3.22774 27.572 3.20722 27.4863 3.18419 27.4009C3.045 27.3082 2.97614 27.0543 2.80326 26.4265C2.69484 26.0407 2.5747 25.6058 2.46188 25.3486C2.45372 25.3325 2.44639 25.3161 2.43991 25.2996L2.46921 25.293C2.46921 25.2233 2.38863 24.8821 2.33002 24.638L2.29926 24.5029C2.24334 24.292 2.20178 24.0792 2.17472 23.8653C2.16834 23.8254 2.16834 23.7852 2.17472 23.7454C2.10168 23.6594 2.05422 23.5628 2.03554 23.462V23.4413C1.89457 22.6203 1.72701 21.8019 1.533 20.9869C1.48986 20.807 1.45273 20.6264 1.42165 20.4452L1.26928 19.6256C1.18392 19.1601 1.10529 18.694 1.0334 18.2273L1.02314 18.1706L1.0964 18.0562L0.89714 17.3804L0.83707 17.1341V17.1112C0.824465 17.0017 0.824465 16.8916 0.83707 16.7821C0.859393 16.556 0.833683 16.3287 0.760884 16.1085L0.819489 16.0998V16.0813C0.749163 15.6453 0.678837 15.1898 0.612907 14.6895L0.517675 13.9833L0.429768 12.9511C0.360907 12.1304 0.289116 11.2803 0.234907 10.4368C0.201719 9.48834 0.15923 8.54012 0.107442 7.59216L0.0883955 7.23358V6.87719L0.0664188 6.16876C0.0504953 5.69741 0.028029 5.22619 -0.000976562 4.75518H0.0517676V4.01079H0.110372L0.0957211 3.78627L0.0810699 2.96667L0.0913258 2.93943C0.14114 2.62772 0.167512 2.31492 0.170442 2.00212V1.94327H0.0473723L0.0400467 1.37653H0.205605C0.205605 1.2719 0.229047 1.16836 0.271535 1.06809L0.284721 1.04629L0.0986513 0.749843L0.21293 0.346584L0.667116 0.39018L0.889814 0L0.806302 1.13893L0.869302 1.51603C0.898605 1.61848 0.919116 1.74709 0.946954 1.9182C0.952814 1.96616 0.96307 2.02065 0.973326 2.08605L1.20921 1.92256L1.0964 2.50129C1.04072 2.95578 1.03193 3.41135 1.07002 3.86692C1.11691 4.38571 1.1213 4.90558 1.08321 5.42546C1.10573 5.45707 1.12061 5.49138 1.12716 5.52682V5.58676C1.07002 6.00528 1.05537 6.42816 1.0876 6.84885H1.10372V7.19326L1.14767 8.12184L1.28686 10.3583C1.30444 10.5981 1.33081 10.8596 1.36305 11.1354C1.38356 11.3348 1.407 11.5463 1.42751 11.7675L1.5667 13.1974L1.46707 12.998L1.50516 13.422L1.51102 13.5037C1.5374 13.8819 1.5916 14.2525 1.65021 14.5969C1.67365 14.8039 1.71907 15.011 1.7894 15.2116L1.80258 15.2377V15.2639C1.82895 15.4688 1.84654 15.6083 1.7806 15.6922C1.7806 15.7118 1.78354 15.7347 1.78793 15.7598L1.86119 15.9647L1.82895 16.1696C1.87622 16.1993 1.91344 16.2369 1.93761 16.2793C1.96178 16.3217 1.97224 16.3678 1.96814 16.4137C1.99744 16.5532 2.02528 16.7265 2.05312 16.9445L2.06337 17.0339C2.08388 17.1973 2.1044 17.3652 2.1293 17.5243L2.17326 17.8186C2.19963 18.0126 2.22307 18.1804 2.24065 18.2741L2.25091 18.3276H2.21721C2.34174 19.1308 2.48093 19.9667 2.62158 20.7667C2.87065 21.9656 3.06405 22.9476 3.21056 23.8413L3.17393 23.8478C3.21217 24.0637 3.26006 24.2785 3.31751 24.492C3.36586 24.687 3.40542 24.8298 3.4567 24.9813L3.47281 25.0391C3.55486 25.3214 3.64863 25.6407 3.81272 26.3448C3.85521 26.5954 3.91821 26.9595 4.0237 27.3442C4.07644 27.4259 4.11747 27.512 4.14677 27.6003C4.16142 27.6319 4.17607 27.6722 4.19072 27.7093L4.23907 27.7028C4.48521 28.6891 4.49107 28.7403 4.50719 28.9125C4.51744 29.0052 4.52916 29.1305 4.5907 29.4869L4.71084 29.7147V29.7398C4.73059 29.8791 4.75208 30.0182 4.7753 30.1572C4.80416 30.3059 4.83983 30.4539 4.88226 30.6008L4.92181 30.6465L5.02437 30.6302C5.34523 31.4226 5.51958 32.0318 5.65877 32.5212C5.79942 33.0094 5.9093 33.3996 6.10563 33.744L6.12321 33.7723V33.8018C6.13786 33.9042 6.15837 34.0568 6.04995 34.1385C6.10123 34.2497 6.1613 34.3609 6.23016 34.4895C6.46605 34.9167 6.6697 35.3538 6.84258 35.7974H6.85284C6.95393 36.0197 7.02572 36.2377 7.10191 36.4676L7.12681 36.5428C7.1693 36.6671 7.21179 36.7935 7.266 36.9276C7.31435 37.0616 7.37442 37.1935 7.44328 37.3221L7.45647 37.3472V37.3744C7.46672 37.4398 7.4843 37.5052 7.50628 37.5706L7.55023 37.5597C7.65865 37.7853 7.75242 38.0153 7.8286 38.2463C7.87988 38.388 7.94581 38.5635 7.96779 38.6016C7.95514 38.5817 7.93661 38.5642 7.91358 38.5504L7.93702 38.606H8.01321C8.07621 38.9133 8.1817 39.2163 8.32967 39.5073L8.35019 39.552C8.42344 39.7199 8.50256 39.8942 8.57581 40.0795C8.57581 40.0882 8.58314 40.0959 8.58753 40.1057L8.6183 40.0425L8.88642 40.7509L8.92744 40.8632L8.99044 40.8523C9.12816 41.2185 9.29519 41.5781 9.49005 41.9302C9.64388 42.2244 9.80505 42.5296 9.92958 42.8457L9.79772 42.8762C9.88416 43.0408 9.98086 43.2021 10.0907 43.359C10.4109 43.8369 10.6851 44.3312 10.9112 44.838L10.8717 44.8489C10.9918 45.0527 11.0885 45.2183 11.15 45.311L11.1632 45.3328C11.2643 45.5377 11.3288 45.675 11.3654 45.7589C11.4098 45.8346 11.4264 45.9177 11.4137 45.9998C11.4738 46.1262 11.5163 46.2439 11.5632 46.3725C11.5983 46.475 11.6379 46.5774 11.6921 46.7115L11.7361 46.7017L11.8328 46.8695C12.054 47.251 12.1653 47.4657 12.224 47.5998L12.2152 47.2684L12.7953 48.5174C12.9594 48.8717 13.0796 49.1136 13.2129 49.3567L13.2378 49.4002C13.3565 49.6182 13.4825 49.8438 13.6876 50.1643L13.903 50.4716C14.1403 50.8095 14.4128 51.2923 14.6121 51.6432C14.681 51.7642 14.741 51.8721 14.7894 51.9506L14.7527 51.9615L15.1835 52.8018L15.2362 52.7876L15.2948 52.8901L15.3461 52.9838L15.4399 52.9544L15.4575 52.9871L16.1431 54.1587C16.1768 54.2001 16.231 54.2611 16.3102 54.3636C16.3702 54.4421 16.4625 54.5598 16.4874 54.5859C16.4469 54.5514 16.3921 54.5279 16.3317 54.519C16.2712 54.5101 16.2085 54.5164 16.1534 54.5369L16.1314 54.5478L16.2428 54.684L16.5211 54.5957C16.7365 54.9031 16.9607 55.2944 17.1951 55.7042L17.2508 55.8066C17.3607 56.0028 17.4852 56.1946 17.6141 56.3973L17.6346 56.4278L17.6551 56.1368L17.9613 56.7799C18.1342 57.0327 18.2134 57.1526 18.1797 57.2442C18.2075 57.2921 18.25 57.3597 18.3115 57.4589L18.8595 58.2229C19.2404 58.7493 19.633 59.2932 20.0755 59.9558L20.5473 60.4506L20.5678 60.4746C20.707 60.6664 20.7978 60.8048 20.707 60.9073L20.8022 61.0457L20.8139 61.062C20.8664 61.052 20.9214 61.0524 20.9736 61.0631L21.0894 61.0849L21.1465 61.1623C21.2344 61.2778 21.3238 61.4064 21.4132 61.5351L21.5523 61.74C21.5919 61.7912 21.6315 61.8424 21.6725 61.9034L21.5509 61.9503L21.6153 62.0528C21.7106 62.1944 21.7985 62.3241 21.8849 62.4451C22.0534 62.4233 22.1706 62.5486 22.3728 62.7623L22.4637 62.8593L22.43 62.9116C22.5179 63.0881 22.9427 63.6364 23.2651 64.0494C23.4907 64.3404 23.7251 64.6423 23.8907 64.869C24.0152 65.0129 24.1134 65.1687 24.1837 65.3322L24.2745 65.4281L24.3009 65.4151C24.5441 65.645 24.7434 65.899 24.8913 66.1693C24.9661 66.3022 25.0496 66.4308 25.1419 66.5583L25.4085 66.6761L26.6246 68.094L26.5689 67.8891L27.4099 69.1076C27.4302 69.1236 27.4488 69.1407 27.4656 69.1588L27.4949 69.1904L27.5139 69.2558C27.6018 69.3833 27.7659 69.6046 27.9066 69.7899L27.9549 69.7615C28.2142 69.949 28.434 70.1637 28.6054 70.3991C28.7124 70.5364 28.8457 70.7075 29.083 70.956L29.1226 70.9321C29.4361 71.1827 29.7277 71.4476 29.9929 71.7255C30.1936 71.9304 30.4207 72.1506 30.6888 72.4012L30.5218 72.5026L30.62 72.6181C30.6712 72.6508 30.7181 72.6879 30.7591 72.7271L30.847 72.677L31.2646 73.0519L31.3115 73.1827L31.4946 73.3789C31.666 73.5522 31.8213 73.7342 31.9591 73.9238C32.003 73.9859 32.047 74.0437 32.129 74.1418C32.6052 74.6039 32.7693 74.6965 32.9143 74.7783L32.9759 74.8142L32.9978 74.836C33.2586 75.0889 33.3846 75.211 33.3246 75.3156C33.5722 75.5445 33.7861 75.7581 33.9941 75.9641C34.0967 76.0665 34.1992 76.169 34.3047 76.2714C34.5465 76.5079 34.797 76.7586 35.0768 77.0409L34.986 76.836L36.0292 77.9019C36.1303 77.9891 36.2079 78.0894 36.2563 78.1983C36.2563 78.2136 36.2768 78.2528 36.5756 78.546L36.6079 78.5787L36.6196 78.6114C36.8218 78.8076 37.0416 78.9929 37.2789 79.1662C37.7126 79.4953 38.1228 79.8408 38.5067 80.2016C38.5416 80.2055 38.5753 80.214 38.6063 80.2266L38.6561 80.2484L40.3776 81.9051L41.1834 82.5067C41.3226 82.6026 41.497 82.7355 41.7314 82.9165L41.708 82.9328L41.7431 82.959L41.7138 82.983L41.8076 83.0701C41.8319 83.0776 41.855 83.0871 41.8764 83.0985C41.9673 83.1628 42.0479 83.2347 42.1153 83.3132L42.1797 83.3786L42.527 83.5399L42.565 83.6325C42.8595 83.8658 43.1731 84.0946 43.4778 84.3159L43.9173 84.6385L45.0909 85.7044L45.1495 85.663L45.1568 85.6695C45.2828 85.7654 45.3517 85.8112 45.3869 85.8341L45.4264 85.8101L46.1136 86.3878L46.7494 86.8924C46.9252 86.9698 47.0864 87.0668 47.2256 87.179C47.3281 87.2499 47.4453 87.3316 47.567 87.4123L49.0804 88.4106L48.701 88.2722C48.9295 88.4335 49.1405 88.6079 49.3324 88.7931L49.3456 88.804C49.5068 88.9501 49.6826 89.0885 49.8657 89.2204L49.8936 89.204C50.0049 89.2912 50.1719 89.4089 50.3375 89.5277L50.6159 89.5332L50.4225 89.5888C50.6056 89.7163 50.7917 89.8394 50.9294 89.9266L50.9558 89.9048L51.1228 90.0193L53.0904 90.6427L52.3198 90.5816L52.5439 90.6656L52.6026 90.6863V90.6917C52.6583 90.6534 52.7318 90.6327 52.8077 90.634H52.9014L52.9542 90.6558L53.1066 90.7179C53.2003 90.756 53.297 90.7953 53.3908 90.8378L53.5549 90.9108C53.6281 90.9184 53.697 90.9348 53.7615 90.9609L53.8596 90.9958L53.8772 91.0318C54.0179 91.1081 54.1629 91.18 54.3138 91.2465C54.56 91.3577 54.8779 91.4863 55.1841 91.6105L55.3702 91.6868L55.3936 91.6966C55.6192 91.811 55.924 91.968 55.7965 92.1653L55.9562 92.2383C55.9622 92.2285 55.9691 92.2191 55.9767 92.2099C55.9972 92.1822 56.0273 92.1589 56.0639 92.1427C56.1004 92.1264 56.1422 92.1176 56.1848 92.1173C56.3277 92.1336 56.4633 92.1751 56.5803 92.2383L56.6067 92.2514L56.7371 92.3189C56.7811 92.3407 56.8602 92.3821 56.9159 92.4137L57.414 92.7004L57.1664 92.7309C57.2353 92.744 57.3012 92.7636 57.3642 92.7887L57.3935 92.8028C57.6689 92.9282 57.9268 93.0731 58.1641 93.2333C58.2227 93.2769 58.2916 93.3238 58.4513 93.4186L58.4 93.4666L58.5304 93.5396L59.4271 94.017L59.7479 94.2033L59.8505 94.1009L60.6959 94.5423L60.6739 94.5728C61.0826 94.8159 61.1383 94.8693 61.2013 94.9292L61.1251 94.672L61.0343 94.3428L60.9039 94.3679L60.6373 93.6322L60.5596 93.4273C60.5492 93.4099 60.5413 93.3916 60.5362 93.3728L60.4483 93.3805L60.3691 93.1156C60.3246 93.088 60.2895 93.0529 60.2666 93.0132C60.1364 92.8387 60.0238 92.6573 59.9296 92.4704L59.915 92.4334C59.915 92.4116 59.9047 92.3898 59.9003 92.3658C59.8869 92.3028 59.8698 92.2402 59.849 92.1783C59.8143 92.1535 59.7865 92.1239 59.767 92.0911H59.7582V92.0715C59.741 92.0381 59.7268 92.0039 59.7157 91.9691H59.7304L59.7216 91.9277C59.6674 91.7304 59.6337 91.5942 59.7025 91.5113C59.6732 91.4508 59.6459 91.3897 59.6205 91.3282L59.6087 91.2934C59.586 91.2205 59.5952 91.1441 59.6351 91.0754C59.6241 91.0236 59.6119 90.972 59.5985 90.9206L60.145 90.8443C60.1905 91.015 60.2359 91.1858 60.2812 91.3566V91.374L60.4468 91.3413L60.5127 91.5015C60.5596 91.604 60.6299 91.7783 60.668 91.8535L60.7559 91.8982L60.6885 92.1685L60.7178 92.271L61.087 93.2813C61.112 93.3184 61.1354 93.3565 61.1559 93.3947C61.1735 93.4295 61.1969 93.4742 61.2248 93.5342L61.342 93.8208L61.2834 93.835L61.3478 94.0093L61.5031 93.9865L61.7962 95.0186L61.2511 95.1036L61.2614 95.0033ZM60.2212 95.0676L60.2475 95.0578L60.271 95.0393L60.227 95.011C60.2216 95.0296 60.2196 95.0486 60.2212 95.0676ZM49.9331 90.3441L49.9741 90.3386L49.9448 90.3277L49.9331 90.3441ZM49.9976 90.3441C49.9762 90.3461 49.9545 90.3461 49.9331 90.3441L49.9111 90.3767L49.8276 90.3473L49.5493 90.2449L49.3148 90.1686L49.1771 90.125L49.202 90.0814C49.0511 90.0443 48.9075 90.0051 48.761 89.9637L48.2292 89.8176L48.1222 89.7904C47.9543 89.744 47.7831 89.7044 47.6094 89.6716L46.7597 89.5223L46.9355 89.4689C46.8824 89.4544 46.8296 89.4391 46.7773 89.4231L46.7846 89.4067L46.5941 89.3621C46.4962 89.3559 46.4012 89.3339 46.3157 89.2978L46.2103 89.2694C46.1634 89.2563 46.1106 89.2411 46.0462 89.2247H46.0257L45.8982 89.192L45.844 89.1801L45.8865 89.0776C45.8524 89.07 45.8187 89.0617 45.7854 89.0525C45.6608 89.1692 45.4674 89.1158 45.1642 89.0307C45.0061 88.9869 44.8497 88.9396 44.6953 88.8891C44.6042 88.8634 44.5297 88.8127 44.4873 88.7474C44.4419 88.7474 44.3891 88.7387 44.3203 88.7288L44.291 88.8029C44.0653 88.7561 43.8368 88.7103 43.6111 88.6656L43.2302 88.5893C43.072 88.5643 42.8976 88.5348 42.7072 88.5021C42.5167 88.4673 42.3555 88.4368 42.1753 88.4117C41.8425 88.3599 41.5117 88.301 41.1834 88.2351C41.0223 88.2133 40.845 88.1763 40.6882 88.1447C40.5857 88.124 40.4875 88.1043 40.4025 88.0902L40.3498 88.0815V88.0869L39.7374 87.9921C39.4136 87.9419 39.0883 87.8896 38.7631 87.8449H38.7543L38.6444 87.834C38.3052 87.8006 37.9668 87.7636 37.6291 87.7229C37.1301 87.6608 36.6288 87.6096 36.1259 87.5692L35.9544 87.5616L36.7075 87.8504C37.0445 87.9703 37.3756 88.1011 37.695 88.246C38.051 88.3376 38.7059 88.5697 39.7491 88.9719L40.423 89.228C41.0648 89.4732 41.6743 89.7054 42.1079 89.8525L42.2471 89.8972L42.2618 89.9637C43.0192 90.2362 43.7489 90.5054 44.7261 90.8672L45.3414 91.0961L45.2653 91.1135C45.5539 91.216 45.8806 91.3184 46.2542 91.435C46.6893 91.568 47.1377 91.7075 47.5787 91.8448C48.4387 92.0683 49.3075 92.3647 50.147 92.6514C50.9616 92.9424 51.7982 93.2028 52.6524 93.4284L52.6831 93.4382C52.9483 93.5298 53.2208 93.6115 53.4992 93.6802V93.6748L54.1878 93.8491C54.3534 93.8862 54.5248 93.9222 54.683 93.9516C55.2471 94.0682 55.4346 94.1074 55.4888 94.211C55.5829 94.2365 55.66 94.288 55.7042 94.3548L55.8756 94.4148C55.9987 94.4311 56.1203 94.4551 56.239 94.4867C56.3078 94.5042 56.3782 94.5238 56.4587 94.5467L56.6639 94.6066L56.7752 94.6415L56.4968 94.4159L56.2697 94.296L56.1848 94.3614C55.8771 94.1499 55.6603 94.0039 55.4888 93.8884L55.0903 93.6115C54.9851 93.5406 54.8815 93.4683 54.7797 93.3947V93.4023L54.1746 93.0066C54.0267 92.9086 53.8523 92.7854 53.6838 92.6644C53.4679 92.5016 53.2378 92.3494 52.9952 92.2088L52.9806 92.2012C52.8414 92.1217 52.437 91.8939 51.8671 91.5233C51.4275 91.2258 50.9103 90.8727 50.2847 90.4432L49.9976 90.3451V90.3441ZM52.6201 91.0307L52.6275 91.022L52.6172 91.0296L52.6201 91.0307ZM45.7194 86.9316C45.7277 86.9249 45.7351 86.9176 45.7414 86.9098L45.7077 86.8913L45.6491 86.9294L45.7209 86.9316H45.7194ZM26.4663 68.0842L26.4883 68.0733L26.4107 68.0166L26.4663 68.0842ZM3.52702 27.5981V27.5763H3.47867C3.43187 27.5838 3.38877 27.6008 3.35414 27.6254L3.52702 27.5981ZM2.75051 25.2156C2.75051 25.184 2.73733 25.1437 2.72707 25.0968H2.69777C2.64022 25.1063 2.58821 25.1292 2.54924 25.1621C2.51027 25.195 2.48635 25.2363 2.48093 25.2799L2.75051 25.2156ZM2.478 23.9525V23.935L2.39888 23.9481C2.4249 23.952 2.45149 23.9535 2.478 23.9525ZM1.10665 16.0475C1.10665 16.0268 1.09933 16.005 1.0964 15.9865H1.0627C1.02157 15.9911 0.982438 16.0028 0.948378 16.0206C0.914318 16.0383 0.88625 16.0617 0.866372 16.0889L1.10665 16.0475ZM3.83616 27.5415C3.85081 27.572 3.86547 27.6079 3.88012 27.6439C3.92099 27.6337 3.95812 27.6165 3.98862 27.5938C4.01912 27.5712 4.04216 27.5435 4.05593 27.5131L3.83616 27.5415ZM3.92847 27.6864L3.89916 27.694L3.92114 27.7507L4.15263 27.7213C4.12073 27.704 4.08424 27.6919 4.04559 27.6859C4.00694 27.6799 3.96702 27.6801 3.92847 27.6864ZM26.4913 68.0787L26.5792 68.1812L26.7022 68.3229L26.6729 68.2117L26.4927 68.0787H26.4913ZM41.9175 83.287L41.9673 83.3448C41.987 83.3127 41.9956 83.2775 41.9922 83.2423L41.9189 83.287H41.9175Z" fill="#231F20"/>
</svg>
